<?xml version="1.0" encoding="UTF-8" standalone="no"?>
<svg
   xmlns:dc="http://purl.org/dc/elements/1.1/"
   xmlns:cc="http://creativecommons.org/ns#"
   xmlns:rdf="http://www.w3.org/1999/02/22-rdf-syntax-ns#"
   xmlns:svg="http://www.w3.org/2000/svg"
   xmlns="http://www.w3.org/2000/svg"
   xmlns:sodipodi="http://sodipodi.sourceforge.net/DTD/sodipodi-0.dtd"
   xmlns:inkscape="http://www.inkscape.org/namespaces/inkscape"
   version="1.1"
   id="Layer_1"
   x="0px"
   y="0px"
   width="2304px"
   height="4096px"
   viewBox="0 0 2304 4096"
   enable-background="new 0 0 2304 4096"
   xml:space="preserve"
   inkscape:version="0.91 r"
   sodipodi:docname="logo.svg"><metadata
     id="metadata8"><rdf:RDF><cc:Work
         rdf:about=""><dc:format>image/svg+xml</dc:format><dc:type
           rdf:resource="http://purl.org/dc/dcmitype/StillImage" /></cc:Work></rdf:RDF></metadata><defs
     id="defs6" /><sodipodi:namedview
     pagecolor="#ffffff"
     bordercolor="#666666"
     borderopacity="1"
     objecttolerance="10"
     gridtolerance="10"
     guidetolerance="10"
     inkscape:pageopacity="0"
     inkscape:pageshadow="2"
     inkscape:window-width="954"
     inkscape:window-height="1026"
     id="namedview4"
     showgrid="false"
     inkscape:zoom="0.23046875"
     inkscape:cx="682.01419"
     inkscape:cy="1854.5012"
     inkscape:window-x="0"
     inkscape:window-y="0"
     inkscape:window-maximized="0"
     inkscape:current-layer="Layer_1" /><path
     style="fill:#000080"
     d="m 658.81836,3422.7136 c -84.7698,-42.6056 -155.39629,-111.8839 -203.2431,-199.3293 -35.8444,-79.1921 -60.97342,-155.3982 -38.70202,-278.7881 35.91255,-177.2386 105.52193,-271.5208 264.73992,-324.8316 77.0376,-24.5763 164.5033,11.0989 176.8847,96.6197 8.9418,71.1444 0.4903,155.4338 -38.8174,217 -35.5155,47.6942 -137.6416,-27.3046 -165.1789,39.7801 -27.3121,71.3161 26.1233,144.8093 84.5152,181.8061 211.32368,162.0745 462.79524,-172.3247 382.10494,-266.6234 -127.96501,-177.1151 -138.96964,-281.766 -85.5086,-447.5841 69.4275,-217.7106 171.7635,-210.512 252.6114,-332.4538 33.9472,-59.2068 31.6738,-160.8889 6.8832,-230.2323 -94.0586,-215.5632 -276.3288,-186.0599 -435.99464,-204.214 -51.2384,-10.5878 -140.82173,-38.6625 -101.6376,-103.0025 41.10454,-69.7942 55.65911,-126.0795 64.37532,-187.9634 13.20943,-97.3533 123.73382,-36.8893 184.36982,5.0734 107.2219,71.1562 229.0088,69.7404 345.6097,44.0944 116.6009,-25.646 123.8802,-47.3188 334.019,-153.3549 124.6428,-54.1621 141.4749,26.4544 92.8737,161.2575 -26.915,105.7679 119.8886,98.3923 187.6605,90.8361 75.9446,-11.7706 99.2124,-17.1257 47.4036,78.1478 -43.6405,91.8499 -88.7183,122.3153 -61.9275,218.1518 -74.5632,81.9102 -64.5911,100.0533 -58.4557,158.6319 -57.9264,48.9932 -79.8281,81.0643 -77.3751,181.5481 -49.6773,44.2731 -82.1367,146.3621 -9.4153,179.6347 73.6346,21.8424 86.6734,112.36 58.8849,174.686 -37.0862,77.677 -73.9581,170.0995 -87.2699,216.4187 -32.2192,93.3811 -165.4252,13.9155 -172.7962,118.2961 -11.9311,166.4871 -87.6179,280.5984 -173.7728,396.0657 -165.4215,209.8968 -509.80634,318.6159 -772.84114,170.3293 z"
     id="path3336"
     inkscape:connector-curvature="0"
     sodipodi:nodetypes="ccccccccccccccccsccccccccccccc" /></svg>